<?xml version="1.0" encoding="UTF-8"?>
<!-- Generator: Adobe Illustrator 20.0.0, SVG Export Plug-In . SVG Version: 6.00 Build 0)  -->
<svg version="1.1" id="Layer_1" xmlns="http://www.w3.org/2000/svg" xmlns:xlink="http://www.w3.org/1999/xlink" x="0px" y="0px" viewBox="0 0 40 41" style="enable-background:new 0 0 40 41;" xml:space="preserve">
<style type="text/css">
	.st0{fill:#0FA8E2;}
	.st1{fill:#FFFFFF;}
</style>
<circle class="st0" cx="20" cy="20.5" r="20"/>
<g>
	<path class="st1" d="M17.3,25.2c-0.1,1-0.5,1.4-1.4,1.4c-1.3,0-2.6,0.1-3.9,0c-1.1-0.1-2,0.2-2.8,0.9c-0.3,0.3-0.7,0.5-1.1,0.8   C8.1,27.6,8,27.2,8,26.6c-0.5,0-1,0-1.5,0c-1,0-1.5-0.4-1.5-1.4c0-3.1,0-6.2,0-9.3c0-0.9,0.5-1.4,1.4-1.4c3.2,0,6.4,0,9.5,0   c0.7,0,1.2,0.4,1.4,1.2c-2.3,0-4.5,0-6.8,0c-1,0-1.5,0.5-1.4,1.4c0.1,0.7,0.5,1.1,1.2,1.1c0.9,0,1.8,0,2.9,0   c-0.4,0.6-0.7,1-1.1,1.5c-0.9,1.3-1.9,2.5-2.8,3.8C8.6,24.4,9,25.3,10,25.4c2.1,0.1,4.3,0,6.4,0C16.7,25.4,16.9,25.2,17.3,25.2z"/>
	<path class="st1" d="M22.9,18.5c0.5-0.1,1-0.3,1.4-0.2c0.3,0.2,0.6,0.8,0.6,1.2c0.1,1.5,0,2.9,0,4.4c0,0.6,0,1.2-0.6,1.3   c-0.4,0.1-1-0.1-1.7-0.2c-1.3,0.8-2.7,0.6-3.8-0.7c-1.3-1.5-1.2-3.9,0.1-5.4C20,17.9,21.4,17.7,22.9,18.5z M22.8,21.8   c0-1-0.6-1.8-1.4-1.8c-0.8,0-1.4,0.7-1.4,1.7c0,1,0.5,1.7,1.3,1.7C22.2,23.5,22.8,22.9,22.8,21.8z"/>
	<path class="st1" d="M28.4,21.8c0-2.2,1.4-3.8,3.4-3.8c2.1,0,3.6,1.6,3.6,3.8c0,2.1-1.5,3.7-3.5,3.8C29.9,25.6,28.4,24,28.4,21.8z    M30.6,21.8c0,1.1,0.5,1.7,1.4,1.7c0.8,0,1.4-0.6,1.4-1.6c0-1.1-0.5-1.8-1.3-1.8C31.1,20,30.6,20.7,30.6,21.8z"/>
	<path class="st1" d="M25.7,20.2c0-1.3,0-2.6,0-3.9c0-0.7,0.3-1.2,1-1.2c0.8,0,1.1,0.5,1.1,1.2c0,2.6,0,5.2,0,7.8   c0,0.7-0.3,1.3-1.1,1.2c-0.7,0-1-0.5-1-1.2C25.7,22.9,25.7,21.5,25.7,20.2z"/>
	<path class="st1" d="M17.2,17.4c0,2,0,3.8,0,5.5c-1.3,0-2.6,0-4.1,0C14.5,21,15.8,19.3,17.2,17.4z"/>
</g>
</svg>